<svg xmlns="http://www.w3.org/2000/svg" viewBox="0 0 32 32" fill="none">
  <rect width="32" height="32" rx="8" fill="#1B4332"/>
  <path d="M8 9C8 8.44772 8.44772 8 9 8H16C16.5523 8 17 8.44772 17 9V23C17 23.5523 16.5523 24 16 24H9C8.44772 24 8 23.5523 8 23V9Z" fill="white" fill-opacity="0.15"/>
  <path d="M16 9C16 8.44772 16.4477 8 17 8H23C23.5523 8 24 8.44772 24 9V23C24 23.5523 23.5523 24 23 24H17C16.4477 24 16 23.5523 16 23V9Z" fill="white" fill-opacity="0.25"/>
  <path d="M16 8V24" stroke="white" stroke-width="1.5" stroke-linecap="round"/>
  <path d="M10 12H14M10 15H14M10 18H12" stroke="white" stroke-width="1.2" stroke-linecap="round"/>
</svg>
